<svg width="52" height="52" viewBox="0 0 52 52" fill="none" xmlns="http://www.w3.org/2000/svg">
<path d="M47.9375 0H4.0625C1.81797 0 0 1.81797 0 4.0625V47.9375C0 50.182 1.81797 52 4.0625 52H47.9375C50.182 52 52 50.182 52 47.9375V4.0625C52 1.81797 50.182 0 47.9375 0ZM31.7383 21.5922L31.4438 25.482H27.4523V38.9898H22.4148V25.482H19.7234V21.5922H22.4148V18.982C22.4148 17.8344 22.4453 16.057 23.2781 14.95C24.1617 13.782 25.3703 12.9898 27.4523 12.9898C30.8445 12.9898 32.2664 13.4773 32.2664 13.4773L31.5961 17.4586C31.5961 17.4586 30.4789 17.1336 29.4328 17.1336C28.3867 17.1336 27.4523 17.5094 27.4523 18.5555V21.5922H31.7383Z" fill="#1B1C31"/>
</svg>
