<svg width="51" height="51" viewBox="0 0 51 51" fill="none" xmlns="http://www.w3.org/2000/svg">
<path d="M25.4998 29.9823C27.9702 29.9823 29.9922 27.9702 29.9922 25.4899C29.9922 24.5138 29.6735 23.6073 29.1455 22.8702C28.3287 21.7446 27.0039 20.9976 25.5098 20.9976C24.0157 20.9976 22.6909 21.7347 21.8741 22.8702C21.3461 23.6073 21.0274 24.5138 21.0274 25.4899C21.0174 27.9702 23.0295 29.9823 25.4998 29.9823Z" fill="#1B1C31"/>
<path d="M35.3016 20.0115V16.2463V15.6885H34.7438L30.9785 15.6984L30.9984 20.0215L35.3016 20.0115Z" fill="#1B1C31"/>
<path d="M47.0156 0H3.98438C1.78301 0 0 1.78301 0 3.98438V47.0156C0 49.217 1.78301 51 3.98438 51H47.0156C49.217 51 51 49.217 51 47.0156V3.98438C51 1.78301 49.217 0 47.0156 0ZM38.25 22.8803V33.3193C38.25 36.0387 36.0387 38.25 33.3193 38.25H17.6807C14.9613 38.25 12.75 36.0387 12.75 33.3193V22.8803V17.6707C12.75 14.9514 14.9613 12.74 17.6807 12.74H33.3193C36.0387 12.74 38.25 14.9514 38.25 17.6707V22.8803Z" fill="#1B1C31"/>
<path d="M32.4727 25.5001C32.4727 29.345 29.3449 32.4728 25.5 32.4728C21.6551 32.4728 18.5273 29.345 18.5273 25.5001C18.5273 24.5737 18.7166 23.6872 19.0453 22.8804H15.2402V33.3194C15.2402 34.6642 16.3359 35.7599 17.6807 35.7599H33.3193C34.6641 35.7599 35.7598 34.6642 35.7598 33.3194V22.8804H31.9547C32.2934 23.6872 32.4727 24.5737 32.4727 25.5001Z" fill="#1B1C31"/>
</svg>
