<svg width="52" height="52" viewBox="0 0 52 52" fill="none" xmlns="http://www.w3.org/2000/svg">
<path d="M47.9375 0H4.0625C1.81797 0 0 1.81797 0 4.0625V47.9375C0 50.182 1.81797 52 4.0625 52H47.9375C50.182 52 52 50.182 52 47.9375V4.0625C52 1.81797 50.182 0 47.9375 0ZM18.7281 36.8773H13.6602V20.6578H18.7281V36.8773ZM16.057 18.6266H16.0164C14.1781 18.6266 12.9898 17.3875 12.9898 15.8133C12.9898 14.2086 14.2187 13 16.0875 13C17.9562 13 19.1039 14.2086 19.1445 15.8133C19.1547 17.3773 17.9664 18.6266 16.057 18.6266ZM39 36.8773H33.2516V28.4883C33.2516 26.2945 32.3578 24.7914 30.3773 24.7914C28.8641 24.7914 28.0211 25.807 27.6352 26.782C27.493 27.1273 27.5133 27.6148 27.5133 28.1125V36.8773H21.8156C21.8156 36.8773 21.8867 22.0086 21.8156 20.6578H27.5133V23.207C27.8484 22.0898 29.6664 20.5055 32.5711 20.5055C36.1766 20.5055 39 22.8414 39 27.8586V36.8773Z" fill="#1B1C31"/>
</svg>
