<svg width="33" height="33" viewBox="0 0 33 33" fill="none" xmlns="http://www.w3.org/2000/svg">
<g opacity="0.79">
<path d="M22.5698 5.27485C26.2008 5.27485 29.1451 8.21907 29.1451 11.8501C29.1451 13.7156 28.3675 15.3966 27.1197 16.5938L16.5009 27.2663L5.68928 16.401C4.5549 15.2192 3.85572 13.6177 3.85572 11.8501C3.85572 8.21804 6.79993 5.27485 10.431 5.27485C13.1658 5.27485 15.5099 6.94547 16.5009 9.32147C17.4919 6.94547 19.8349 5.27485 22.5698 5.27485ZM22.5698 4.17554C20.1515 4.17554 17.9302 5.29857 16.4999 7.14966C15.0706 5.29857 12.8492 4.17554 10.4299 4.17554C6.19768 4.17554 2.75537 7.61888 2.75537 11.8501C2.75537 13.8383 3.5154 15.7255 4.89522 17.1631L16.4999 28.8255L27.8983 17.3704C29.4039 15.9246 30.2444 13.959 30.2444 11.8511C30.2444 7.61888 26.801 4.17657 22.5698 4.17657V4.17554Z" fill="#171717"/>
</g>
</svg>
