<svg width="52" height="52" viewBox="0 0 52 52" fill="none" xmlns="http://www.w3.org/2000/svg">
<path d="M49.2503 0.166748H2.75033C2.06518 0.166748 1.4081 0.43892 0.923633 0.923389C0.439164 1.40786 0.166992 2.06494 0.166992 2.75008V49.2501C0.166992 49.9352 0.439164 50.5923 0.923633 51.0768C1.4081 51.5612 2.06518 51.8334 2.75033 51.8334H49.2503C49.9355 51.8334 50.5925 51.5612 51.077 51.0768C51.5615 50.5923 51.8337 49.9352 51.8337 49.2501V2.75008C51.8337 2.06494 51.5615 1.40786 51.077 0.923389C50.5925 0.43892 49.9355 0.166748 49.2503 0.166748ZM40.7744 22.7063C40.4928 22.7347 40.2087 22.7477 39.9271 22.7502C38.3944 22.7522 36.8853 22.3723 35.5363 21.6448C34.1872 20.9173 33.0407 19.8651 32.2003 18.5833V32.7736C32.2008 34.8487 31.5859 36.8774 30.4334 38.603C29.2808 40.3286 27.6424 41.6737 25.7253 42.468C23.8082 43.2624 21.6986 43.4703 19.6634 43.0656C17.6281 42.6609 15.7585 41.6617 14.2912 40.1944C12.8239 38.727 11.8247 36.8575 11.4199 34.8222C11.0152 32.7869 11.2232 30.6773 12.0176 28.7603C12.8119 26.8432 14.157 25.2048 15.8826 24.0522C17.6082 22.8996 19.6369 22.2847 21.712 22.2852C21.9316 22.2852 22.1434 22.3059 22.3604 22.3188V27.4855C21.6376 27.3979 20.9046 27.4591 20.2064 27.6653C19.5081 27.8714 18.8594 28.2182 18.3001 28.6843C17.7407 29.1503 17.2826 29.7258 16.9539 30.3754C16.6252 31.025 16.4327 31.735 16.3884 32.4617C16.3442 33.1884 16.449 33.9165 16.6964 34.6012C16.9438 35.2859 17.3286 35.9128 17.8272 36.4433C18.3258 36.9739 18.9276 37.3968 19.5957 37.6862C20.2638 37.9757 20.9839 38.1254 21.712 38.1262C23.1488 38.1523 24.5383 37.6133 25.5818 36.6254C26.6254 35.6374 27.2394 34.2794 27.292 32.8433L27.3437 8.73825H32.2882C32.5139 10.8862 33.4876 12.8864 35.0389 14.389C36.5902 15.8917 38.6204 16.8012 40.7744 16.9584V22.7063Z" fill="#1B1C31"/>
</svg>
